<?xml version="1.0" encoding="utf-8"?>
<!-- Generator: Adobe Illustrator 22.0.0, SVG Export Plug-In . SVG Version: 6.00 Build 0)  -->
<svg version="1.1" xmlns="http://www.w3.org/2000/svg" xmlns:xlink="http://www.w3.org/1999/xlink" x="0px" y="0px"
	 viewBox="0 0 900 900" style="enable-background:new 0 0 900 900;" xml:space="preserve">
<g id="hex">
	<path data-start="10" data-duration="80" style="fill:none;stroke:#FFFFFF;stroke-width:23;stroke-miterlimit:10;" d="M504.9,848.4c-5.6,2.1-10.6,5.1-15.5,8.4
		c-10.9,4.7-20.6,12-32,15.9c-10.6,1.9-21.3,1.7-31.9-0.2c-10.6-5.4-21.2-10.7-31.8-16.1c-4.4-3.2-9.2-5.9-14.3-7.8
		c-6.7-1.4-12.2-5.4-18.1-8.4c-10.8-5.3-21-11.7-31.6-17.4c-3.9-2-7.7-4.5-11.7-6.3c-6.9-3.7-13.5-7.9-20.5-11.4
		c-10.7-5.3-20.9-11.6-31.4-17.3c-1.3-0.7-2.7-1.3-4-2c-9.5-5.4-19-10.6-28.6-15.6c-9.4-5.4-19-10.4-28.4-15.8
		c-1.8-1.3-3.7-2.3-5.7-3.2c-9.8-5.5-19.8-10.6-29.5-16.2c-8.6-4.6-16.8-9.7-25.6-13.8c-1.3-0.7-2.6-1.6-3.8-2.4
		c-11.5-6.2-23.2-12.2-34.4-18.9c-5.8-3.5-12.1-5.8-17.8-9.5c-4.7-3-9.8-5.4-14.5-8.3c-10.1-6-16-15.4-20.9-25.6
		c-4.8-10.3-4.8-21.2-4.5-32.2c-0.3-10.3-0.3-20.7-0.1-31c-0.3-10.6-0.3-21.2,0-31.8c-0.3-10.6-0.3-21.3,0-31.9
		c-0.3-10.6-0.3-21.3,0-31.9c-0.3-10.6-0.3-21.3,0-31.9c-0.3-10.6-0.3-21.3,0-31.9c-0.3-10.6-0.3-21.3,0-31.9
		c-0.3-10.6-0.3-21.3,0-31.9c-0.3-10.6-0.3-21.3,0-31.9c-0.2-10.6-0.3-21.2,0-31.7c-0.2-10.3-0.2-20.5,0-30.8
		c-0.5-10.9,1.2-21.3,6.4-31c4.4-8.7,11.1-15.5,18.8-21.4c8.4-5,17-9.6,25.6-14.1c2.3-1.3,4.5-2.6,6.8-3.8
		c10.9-6.6,22.6-11.9,33.5-18.4c5.1-3,10.3-6,15.7-8.5c5.8-2.5,10.9-6.3,16.5-9.2c9.6-5.8,20-10.4,29.6-16.3
		c4.7-2.2,8.9-5.4,13.6-7.6c6.5-2.8,12.4-6.7,18.6-10.1c11.5-5.6,22.3-12.4,33.5-18.4c1.7-0.8,3.3-1.6,4.9-2.6
		c9.1-5.3,18.3-10.4,27.6-15.3c13.1-7.9,27.2-13.9,40.1-22.2c4.9-3.2,10.3-5.3,15.9-6.9c2.5-0.4,4.5-1.9,6.4-3.4
		c8.2-7.6,18.2-12.1,28.6-15.8c1.1-0.6,2.2-1.2,3.3-1.8c12-5.4,22.7-13.6,35.7-17c8.2-0.1,16.5-0.1,24.7-0.2
		c12.8,3.1,23.3,11.3,35.1,16.4c1.3,1.4,2.9,2.4,4.9,2.7c9.9,3.8,19.7,7.6,27.4,15.3c10.5,5.6,20.9,11.3,31.4,16.9
		c0,0,0.1-0.1,0.1-0.1c11.4,3.5,20.8,10.7,31.3,15.9c9.4,5.4,19.2,10,28.5,15.5c1.3,0.7,2.6,1.6,3.8,2.4c11,5.7,21.5,12.1,32.7,17.5
		c6,4.3,13.1,7,19.3,11.1c4.2,2.5,8.7,4.3,12.9,6.6c10.4,6.1,20.8,11.9,31.6,17.2c5.3,3.4,11,6.3,16.4,9.5c5,3.3,10.4,5.5,15.7,8.2
		c10.3,6.1,20.6,12.3,31.5,17.3c2.9,1.6,5.7,3.5,8.6,5.1c8.1,4.1,15.7,9.1,23.9,12.9c8.9,5.2,14.5,13.4,20,21.7
		c4.8,8.3,6.2,17.5,6,26.9c-1.2,75.7-0.2,151.3-0.5,227c-0.1,39.8,0,79.7,0,119.5c0,4.2-0.1,8.5,0.6,12.7c0.9,9.1-0.5,17.9-4.1,26.3
		c-5.1,10.4-11,20.2-21.5,26.1c-4.6,2.5-9.4,4.6-13.7,7.7c-6.5,3-12.5,6.8-18.7,10.3c-11.4,5.8-22.2,12.6-33.5,18.4
		c-1.7,0.8-3.3,1.6-4.9,2.6c-9,5.4-18.5,9.9-27.5,15.3c-10.6,5.8-21.3,11.6-31.8,17.5c-10.2,5-19.8,11-29.7,16.4
		c-9.2,5-18.4,9.8-27.4,15.1c-1.6,1-3.3,1.8-5,2.6c-11.2,6.1-22.4,12.2-33.6,18.4c-6.6,2.7-12.2,7.2-18.6,10.1
		c-4.7,2.2-8.9,5.4-13.6,7.6c-9.9,5.3-19.8,10.6-29.5,16.2C516.5,843.2,511.3,847,504.9,848.4z"/>
</g>
<g id="letter-stroke">
	<g>
		<path data-start="30" data-duration="10" style="fill:none;stroke:#FFFFFF;stroke-miterlimit:10;" d="M210.4,438.9V291.2h30.1v147.8H210.4z"/>
		<path data-start="30" data-duration="10" style="fill:none;stroke:#FFFFFF;stroke-miterlimit:10;" d="M302.3,382.6v56.4h-29.9V293.7c14.8-2.7,30.8-4.1,48.1-4.1
			c5,0,9.6,0.2,13.6,0.5c4.1,0.3,8.2,0.9,12.4,1.8c4.2,0.9,7.9,2,11.1,3.5c3.2,1.4,6.2,3.3,9.1,5.7c2.9,2.4,5.2,5.1,7.1,8.3
			c1.9,3.2,3.3,7,4.4,11.5c1.1,4.5,1.6,9.5,1.6,15.1c0,6.4-0.7,12.1-2,17.1c-1.3,5-3.2,9.2-5.7,12.6c-2.5,3.4-5.5,6.3-8.8,8.6
			c-3.4,2.3-7.3,4.1-11.8,5.4l33.7,59.2h-34.5l-30.3-55.8C315.3,383.2,309.3,383,302.3,382.6z M302.3,314.3v44.4
			c4.4,0.5,10.5,0.8,18.3,0.8c4.9,0,9.1-0.3,12.5-1c3.4-0.7,6.5-1.9,9.2-3.6c2.7-1.7,4.6-4.2,5.9-7.3c1.3-3.1,1.9-7,1.9-11.6
			c0-8.3-2.2-14.2-6.5-17.7c-4.3-3.5-11.8-5.2-22.5-5.2C314.9,313,308.6,313.5,302.3,314.3z"/>
		<path data-start="30" data-duration="10" style="fill:none;stroke:#FFFFFF;stroke-miterlimit:10;" d="M483.1,438.6c-5.9,1.2-12.6,1.8-20.3,1.8
			c-7.7,0-14.5-0.6-20.4-1.8c-5.9-1.2-11-3.2-15.4-5.9c-4.4-2.7-8.1-6-11-9.9c-3-3.9-5.4-8.8-7.2-14.5c-1.8-5.8-3.1-12.1-3.9-19.1
			c-0.8-7-1.2-15-1.2-24.2c0-9.2,0.4-17.2,1.2-24.2c0.8-7,2.1-13.3,3.9-19.1c1.8-5.8,4.2-10.6,7.2-14.5c3-3.9,6.6-7.2,11-9.9
			c4.4-2.7,9.5-4.6,15.4-5.9c5.9-1.2,12.7-1.8,20.4-1.8c7.7,0,14.5,0.6,20.3,1.8c5.9,1.2,11,3.2,15.4,5.9c4.4,2.7,8.1,6,11,9.9
			c3,3.9,5.4,8.7,7.2,14.5c1.8,5.8,3.1,12.1,3.9,19.1c0.8,7,1.2,15.1,1.2,24.2c0,9.2-0.4,17.3-1.2,24.2c-0.8,7-2.1,13.3-3.9,19.1
			c-1.8,5.8-4.2,10.6-7.2,14.5c-3,3.9-6.6,7.2-11,9.9C494.1,435.5,489,437.4,483.1,438.6z M454.4,414.9c2.5,0.6,5.3,0.8,8.4,0.8
			c3.1,0,5.9-0.3,8.4-0.8c2.5-0.5,4.7-1.2,6.5-2c1.9-0.8,3.5-2,4.9-3.6c1.4-1.6,2.6-3.2,3.6-4.7c1-1.5,1.8-3.5,2.4-6.1
			c0.7-2.6,1.2-4.8,1.6-6.8c0.4-2,0.6-4.7,0.8-8.1c0.2-3.4,0.3-6.3,0.3-8.8c0-2.4,0.1-5.7,0.1-9.7c0-4.1,0-7.3-0.1-9.7
			c0-2.4-0.1-5.3-0.3-8.8c-0.2-3.4-0.4-6.1-0.8-8.1c-0.4-2-0.9-4.3-1.6-6.9c-0.7-2.6-1.5-4.6-2.4-6.1c-1-1.5-2.1-3-3.6-4.6
			c-1.4-1.6-3.1-2.8-4.9-3.6c-1.9-0.8-4-1.5-6.5-2.1c-2.5-0.5-5.3-0.8-8.4-0.8c-3.1,0-5.9,0.3-8.4,0.8c-2.5,0.6-4.7,1.2-6.6,2.1
			s-3.5,2-4.9,3.6c-1.4,1.6-2.6,3.1-3.6,4.6c-1,1.5-1.8,3.5-2.5,6.1c-0.7,2.6-1.2,4.9-1.6,6.9c-0.4,2-0.6,4.7-0.8,8.1
			c-0.2,3.4-0.3,6.3-0.3,8.8c0,2.4-0.1,5.7-0.1,9.7c0,4.1,0,7.3,0.1,9.7c0,2.4,0.1,5.3,0.3,8.8c0.2,3.4,0.4,6.1,0.8,8.1
			c0.4,2,0.9,4.3,1.6,6.8c0.7,2.6,1.5,4.6,2.5,6.1c1,1.5,2.2,3,3.6,4.7c1.4,1.6,3.1,2.8,4.9,3.6
			C449.8,413.7,451.9,414.4,454.4,414.9z"/>
		<path data-start="30" data-duration="10" style="fill:none;stroke:#FFFFFF;stroke-miterlimit:10;" d="M593.5,309.1l46.9,90.5V291.2h27V418c0,15-6,22.5-18.1,22.5
			c-5.6,0-10.3-1.4-14.1-4.3c-3.8-2.9-7.6-7.9-11.4-15.2l-46.9-90.8v108.8h-27V312.1c0-15,6-22.5,18.1-22.5c5.3,0,9.9,1.5,14,4.5
			S589.9,302.1,593.5,309.1z"/>
	</g>
	<g>
		<path data-start="30" data-duration="10" style="fill:none;stroke:#FFFFFF;stroke-miterlimit:10;" d="M302.7,598.7h-10.6v-59.8h-71.3v59.8h-10.5V473.9h10.5v56h71.3
			v-56h10.6V598.7z"/>
		<path data-start="30" data-duration="10" style="fill:none;stroke:#FFFFFF;stroke-miterlimit:10;" d="M426.6,543.1c0,11.5-2,21.6-6,30.2c-4,8.7-9.6,15.4-17,20
			c-7.4,4.7-15.9,7-25.5,7c-14.6,0-26.3-5.2-35.3-15.6c-9-10.4-13.5-24.5-13.5-42.2v-12.9c0-11.4,2-21.4,6-30.2
			c4-8.8,9.7-15.5,17.1-20.2s15.9-7.1,25.4-7.1c9.6,0,18.1,2.3,25.4,6.9c7.3,4.6,13,11.2,17,19.6c4,8.5,6.1,18.3,6.3,29.4V543.1z
			 M416.1,529.5c0-15-3.4-26.8-10.2-35.3c-6.8-8.5-16.1-12.8-27.9-12.8c-11.6,0-20.8,4.3-27.7,12.8c-6.9,8.5-10.3,20.5-10.3,35.8v13
			c0,14.8,3.4,26.5,10.3,35.2c6.9,8.7,16.2,13,27.9,13c11.9,0,21.2-4.3,27.9-12.8c6.7-8.5,10-20.4,10-35.7V529.5z"/>
		<path data-start="30" data-duration="10" style="fill:none;stroke:#FFFFFF;stroke-miterlimit:10;" d="M467.2,473.9l46,110.1l46.2-110.1h14.1v124.7h-10.5v-54.3
			l0.9-55.7l-46.4,110h-8.1l-46.3-109.6l0.9,54.9v54.7h-10.5V473.9H467.2z"/>
		<path data-start="30" data-duration="10" style="fill:none;stroke:#FFFFFF;stroke-miterlimit:10;" d="M673.9,538.9h-58.3v50.9h67.1v8.9H605V473.9h77.2v8.9h-66.7V530
			h58.3V538.9z"/>
	</g>
</g>
<g id="letter-fill">
	<g>
		<path data-start="60" data-duration="80" style="fill:#FFFFFF;" d="M210.4,438.9V291.2h30.1v147.8H210.4z"/>
		<path data-start="60" data-duration="80" style="fill:#FFFFFF;" d="M302.3,382.6v56.4h-29.9V293.7c14.8-2.7,30.8-4.1,48.1-4.1c5,0,9.6,0.2,13.6,0.5
			c4.1,0.3,8.2,0.9,12.4,1.8c4.2,0.9,7.9,2,11.1,3.5c3.2,1.4,6.2,3.3,9.1,5.7c2.9,2.4,5.2,5.1,7.1,8.3c1.9,3.2,3.3,7,4.4,11.5
			c1.1,4.5,1.6,9.5,1.6,15.1c0,6.4-0.7,12.1-2,17.1c-1.3,5-3.2,9.2-5.7,12.6c-2.5,3.4-5.5,6.3-8.8,8.6c-3.4,2.3-7.3,4.1-11.8,5.4
			l33.7,59.2h-34.5l-30.3-55.8C315.3,383.2,309.3,383,302.3,382.6z M302.3,314.3v44.4c4.4,0.5,10.5,0.8,18.3,0.8
			c4.9,0,9.1-0.3,12.5-1c3.4-0.7,6.5-1.9,9.2-3.6c2.7-1.7,4.6-4.2,5.9-7.3c1.3-3.1,1.9-7,1.9-11.6c0-8.3-2.2-14.2-6.5-17.7
			c-4.3-3.5-11.8-5.2-22.5-5.2C314.9,313,308.6,313.5,302.3,314.3z"/>
		<path data-start="60" data-duration="80" style="fill:#FFFFFF;" d="M483.1,438.6c-5.9,1.2-12.6,1.8-20.3,1.8c-7.7,0-14.5-0.6-20.4-1.8c-5.9-1.2-11-3.2-15.4-5.9
			c-4.4-2.7-8.1-6-11-9.9c-3-3.9-5.4-8.8-7.2-14.5c-1.8-5.8-3.1-12.1-3.9-19.1c-0.8-7-1.2-15-1.2-24.2c0-9.2,0.4-17.2,1.2-24.2
			c0.8-7,2.1-13.3,3.9-19.1c1.8-5.8,4.2-10.6,7.2-14.5c3-3.9,6.6-7.2,11-9.9c4.4-2.7,9.5-4.6,15.4-5.9c5.9-1.2,12.7-1.8,20.4-1.8
			c7.7,0,14.5,0.6,20.3,1.8c5.9,1.2,11,3.2,15.4,5.9c4.4,2.7,8.1,6,11,9.9c3,3.9,5.4,8.7,7.2,14.5c1.8,5.8,3.1,12.1,3.9,19.1
			c0.8,7,1.2,15.1,1.2,24.2c0,9.2-0.4,17.3-1.2,24.2c-0.8,7-2.1,13.3-3.9,19.1c-1.8,5.8-4.2,10.6-7.2,14.5c-3,3.9-6.6,7.2-11,9.9
			C494.1,435.5,489,437.4,483.1,438.6z M454.4,414.9c2.5,0.6,5.3,0.8,8.4,0.8c3.1,0,5.9-0.3,8.4-0.8c2.5-0.5,4.7-1.2,6.5-2
			c1.9-0.8,3.5-2,4.9-3.6c1.4-1.6,2.6-3.2,3.6-4.7c1-1.5,1.8-3.5,2.4-6.1c0.7-2.6,1.2-4.8,1.6-6.8c0.4-2,0.6-4.7,0.8-8.1
			c0.2-3.4,0.3-6.3,0.3-8.8c0-2.4,0.1-5.7,0.1-9.7c0-4.1,0-7.3-0.1-9.7c0-2.4-0.1-5.3-0.3-8.8c-0.2-3.4-0.4-6.1-0.8-8.1
			c-0.4-2-0.9-4.3-1.6-6.9c-0.7-2.6-1.5-4.6-2.4-6.1c-1-1.5-2.1-3-3.6-4.6c-1.4-1.6-3.1-2.8-4.9-3.6c-1.9-0.8-4-1.5-6.5-2.1
			c-2.5-0.5-5.3-0.8-8.4-0.8c-3.1,0-5.9,0.3-8.4,0.8c-2.5,0.6-4.7,1.2-6.6,2.1s-3.5,2-4.9,3.6c-1.4,1.6-2.6,3.1-3.6,4.6
			c-1,1.5-1.8,3.5-2.5,6.1c-0.7,2.6-1.2,4.9-1.6,6.9c-0.4,2-0.6,4.7-0.8,8.1c-0.2,3.4-0.3,6.3-0.3,8.8c0,2.4-0.1,5.7-0.1,9.7
			c0,4.1,0,7.3,0.1,9.7c0,2.4,0.1,5.3,0.3,8.8c0.2,3.4,0.4,6.1,0.8,8.1c0.4,2,0.9,4.3,1.6,6.8c0.7,2.6,1.5,4.6,2.5,6.1
			c1,1.5,2.2,3,3.6,4.7c1.4,1.6,3.1,2.8,4.9,3.6C449.8,413.7,451.9,414.4,454.4,414.9z"/>
		<path data-start="60" data-duration="80" style="fill:#FFFFFF;" d="M593.5,309.1l46.9,90.5V291.2h27V418c0,15-6,22.5-18.1,22.5c-5.6,0-10.3-1.4-14.1-4.3
			c-3.8-2.9-7.6-7.9-11.4-15.2l-46.9-90.8v108.8h-27V312.1c0-15,6-22.5,18.1-22.5c5.3,0,9.9,1.5,14,4.5S589.9,302.1,593.5,309.1z"/>
	</g>
	<g>
		<path data-start="60" data-duration="80" style="fill:#FFFFFF;" d="M302.7,598.7h-10.6v-59.8h-71.3v59.8h-10.5V473.9h10.5v56h71.3v-56h10.6V598.7z"/>
		<path data-start="60" data-duration="80" style="fill:#FFFFFF;" d="M426.6,543.1c0,11.5-2,21.6-6,30.2c-4,8.7-9.6,15.4-17,20c-7.4,4.7-15.9,7-25.5,7
			c-14.6,0-26.3-5.2-35.3-15.6c-9-10.4-13.5-24.5-13.5-42.2v-12.9c0-11.4,2-21.4,6-30.2c4-8.8,9.7-15.5,17.1-20.2s15.9-7.1,25.4-7.1
			c9.6,0,18.1,2.3,25.4,6.9c7.3,4.6,13,11.2,17,19.6c4,8.5,6.1,18.3,6.3,29.4V543.1z M416.1,529.5c0-15-3.4-26.8-10.2-35.3
			c-6.8-8.5-16.1-12.8-27.9-12.8c-11.6,0-20.8,4.3-27.7,12.8c-6.9,8.5-10.3,20.5-10.3,35.8v13c0,14.8,3.4,26.5,10.3,35.2
			c6.9,8.7,16.2,13,27.9,13c11.9,0,21.2-4.3,27.9-12.8c6.7-8.5,10-20.4,10-35.7V529.5z"/>
		<path data-start="60" data-duration="80" style="fill:#FFFFFF;" d="M467.2,473.9l46,110.1l46.2-110.1h14.1v124.7h-10.5v-54.3l0.9-55.7l-46.4,110h-8.1l-46.3-109.6
			l0.9,54.9v54.7h-10.5V473.9H467.2z"/>
		<path data-start="60" data-duration="80" style="fill:#FFFFFF;" d="M673.9,538.9h-58.3v50.9h67.1v8.9H605V473.9h77.2v8.9h-66.7V530h58.3V538.9z"/>
	</g>
</g>
</svg>
